HIERARCHY
ROOT Pelvis
{
	OFFSET 0.000000 0.000000 0.000000
	CHANNELS 6 Xposition Yposition Zposition Zrotation Yrotation Xrotation 
	JOINT Left_hip
	{
		OFFSET 0.068973 -0.091024 -0.007589
		CHANNELS 3 Zrotation Yrotation Xrotation
		JOINT Left_knee
		{
			OFFSET 0.036482 -0.391037 -0.003979
			CHANNELS 3 Zrotation Yrotation Xrotation
			JOINT Left_ankle
			{
				OFFSET -0.012239 -0.415469 -0.043440
				CHANNELS 3 Zrotation Yrotation Xrotation
				JOINT Left_foot
				{
					OFFSET 0.023806 -0.058558 0.118702
					CHANNELS 3 Zrotation Yrotation Xrotation
					End Site
					{
						OFFSET 0.000000 0.000000 0.000000
					}
				}
			}
		}
	}
	JOINT Right_hip
	{
		OFFSET -0.066552 -0.090468 -0.003847
		CHANNELS 3 Zrotation Yrotation Xrotation
		JOINT Right_knee
		{
			OFFSET -0.042435 -0.398340 -0.006400
			CHANNELS 3 Zrotation Yrotation Xrotation
			JOINT Right_ankle
			{
				OFFSET 0.014931 -0.415421 -0.041327
				CHANNELS 3 Zrotation Yrotation Xrotation
				JOINT Right_foot
				{
					OFFSET -0.021472 -0.049410 0.121889
					CHANNELS 3 Zrotation Yrotation Xrotation
					End Site
					{
						OFFSET 0.000000 0.000000 0.000000
					}
				}
			}
		}
	}
	JOINT Spine1
	{
		OFFSET -0.002904 0.105700 -0.022855
		CHANNELS 3 Zrotation Yrotation Xrotation
		JOINT Spine2
		{
			OFFSET 0.004179 0.132554 -0.002501
			CHANNELS 3 Zrotation Yrotation Xrotation
			JOINT Spine3
			{
				OFFSET 0.001987 0.049603 0.025988
				CHANNELS 3 Zrotation Yrotation Xrotation
				JOINT Neck
				{
					OFFSET -0.003935 0.211336 -0.045638
					CHANNELS 3 Zrotation Yrotation Xrotation
					JOINT Head
					{
						OFFSET 0.003906 0.065991 0.051018
						CHANNELS 3 Zrotation Yrotation Xrotation
						End Site
						{
							OFFSET 0.000000 0.000000 0.000000
						}
					}
				}
				JOINT Left_collar
				{
					OFFSET 0.072882 0.117751 -0.036270
					CHANNELS 3 Zrotation Yrotation Xrotation
					JOINT Left_shoulder
					{
						OFFSET 0.082118 0.032630 -0.005771
						CHANNELS 3 Zrotation Yrotation Xrotation
						JOINT Left_elbow
						{
							OFFSET 0.263305 -0.015144 -0.028095
							CHANNELS 3 Zrotation Yrotation Xrotation
							JOINT Left_wrist
							{
								OFFSET 0.250741 0.010115 -0.000759
								CHANNELS 3 Zrotation Yrotation Xrotation
								JOINT Left_palm
								{
									OFFSET 0.080683 -0.009989 -0.013613
									CHANNELS 3 Zrotation Yrotation Xrotation
									End Site
									{
										OFFSET 0.000000 0.000000 0.000000
									}
								}
							}
						}
					}
				}
				JOINT Right_collar
				{
					OFFSET -0.074811 0.116132 -0.040385
					CHANNELS 3 Zrotation Yrotation Xrotation
					JOINT Right_shoulder
					{
						OFFSET -0.085089 0.032943 -0.007484
						CHANNELS 3 Zrotation Yrotation Xrotation
						JOINT Right_elbow
						{
							OFFSET -0.254763 -0.014219 -0.020321
							CHANNELS 3 Zrotation Yrotation Xrotation
							JOINT Right_wrist
							{
								OFFSET -0.256597 0.009233 -0.005063
								CHANNELS 3 Zrotation Yrotation Xrotation
								JOINT Right_palm
								{
									OFFSET -0.080528 -0.007219 -0.010379
									CHANNELS 3 Zrotation Yrotation Xrotation
									End Site
									{
										OFFSET 0.000000 0.000000 0.000000
									}
								}
							}
						}
					}
				}
			}
		}
	}
}
MOTION
Frames: 13
Frame Time: 0.100000
0.000000 0.000000 0.000000 175.365746 21.446187 -20.539555 7.369220 8.191025 16.377706 -2.798843 4.466565 -7.898756 -5.128975 8.369168 2.599871 4.188234 8.533429 -2.855063 -3.214577 -6.907064 15.614377 3.913000 -6.491825 -4.846091 4.648896 -6.122920 0.184460 -2.600282 -2.548260 3.043139 0.900435 0.910119 -2.344266 0.911752 -3.387572 13.748500 1.111464 -1.757354 -0.493046 1.393064 7.629046 4.124342 1.011124 -4.400587 -15.039728 -27.188543 -8.481607 10.402700 -50.105064 -4.033762 8.406181 1.985392 -29.285306 14.805713 -11.694761 -10.139912 11.181871 -9.472727 -2.789382 -22.667150 24.998678 12.594348 10.464677 51.033111 2.005845 11.847927 -7.272409 26.094150 7.210940 5.126493 5.999586 7.181726 10.504753 3.709902 -9.280104 
-0.000102 0.000028 -0.000001 175.432068 21.352412 -20.527787 7.326595 8.145910 16.270372 -2.813198 4.541558 -7.624095 -4.991161 8.546435 2.395984 4.087936 8.598592 -2.983544 -3.239678 -6.903085 15.599092 3.894479 -6.440378 -4.824741 4.451057 -6.075602 0.191542 -2.258908 -2.619479 3.072280 1.003374 1.043421 -2.427407 0.752734 -3.174569 13.970032 0.949890 -1.607544 -0.455859 1.370027 7.516674 4.390260 1.028068 -4.509611 -14.893682 -27.258513 -8.190770 10.247455 -50.231727 -4.285070 8.072385 2.830310 -28.981796 13.771266 -11.863368 -10.365112 11.045191 -9.214761 -2.583001 -22.423504 25.057432 12.573422 10.779403 51.408358 1.743268 12.169269 -6.786250 25.827631 8.003866 5.244133 6.122852 7.371576 10.270808 3.607038 -9.017687 
-0.000456 0.000067 -0.000119 175.536934 21.249736 -20.617454 7.225570 8.194703 16.395887 -2.790905 4.553754 -7.495617 -4.919185 8.717324 2.297694 3.985857 8.524814 -2.974904 -3.337131 -6.760163 15.715303 3.854658 -6.357215 -4.738844 4.454098 -6.165108 0.164449 -2.292918 -2.435813 3.011347 1.100066 1.044312 -2.352320 0.602424 -3.091694 14.128959 0.791549 -1.489650 -0.428647 1.167578 7.589639 4.488658 0.924448 -4.439686 -14.648620 -27.408249 -8.371418 10.368821 -50.304103 -4.515665 7.904922 3.186855 -26.957979 13.023362 -12.060255 -10.115744 11.086556 -9.152541 -2.608504 -22.471636 25.163948 12.903491 10.955885 51.638355 2.033369 12.144645 -6.704670 24.016591 7.655990 5.345518 5.870872 7.449856 10.289231 3.656267 -9.027366 
-0.000655 -0.000350 -0.000338 175.536717 21.076725 -20.562517 7.230310 8.278203 16.334688 -2.768242 4.632629 -7.523126 -4.928503 8.724205 2.639101 3.920846 8.520275 -2.930255 -3.330004 -6.799133 15.533768 3.855539 -6.304763 -4.634438 4.472244 -6.180731 0.385968 -2.295853 -2.336610 2.951641 1.130404 1.074965 -2.339544 0.570608 -3.096222 14.272918 0.711539 -1.458479 -0.444763 1.143357 7.591898 4.321100 0.933140 -4.485338 -14.740097 -27.575686 -8.360228 10.432677 -50.235803 -4.315798 7.844155 3.285658 -25.631828 12.689415 -12.290601 -9.881132 11.297947 -9.156125 -2.725156 -22.488896 25.236492 12.989794 10.893837 51.441012 2.168552 12.089325 -6.835322 23.705946 7.408800 5.342397 5.795323 7.730388 10.453914 3.748280 -9.096051 
0.000298 -0.001088 -0.003257 175.376840 21.215417 -20.540352 7.251584 8.254613 16.047773 -2.720804 4.712764 -7.705596 -4.988174 8.574241 3.286535 3.920638 8.628012 -2.826659 -3.234387 -6.828569 15.188552 3.925090 -6.511175 -4.606096 4.526548 -6.251506 0.923153 -2.428457 -2.326353 2.870348 1.078601 1.033721 -1.933363 0.621212 -3.203850 14.381248 0.808553 -1.548935 -0.348777 1.208460 7.501039 4.003671 1.133880 -4.690528 -15.063722 -27.641502 -8.651554 10.616168 -50.212720 -4.343553 7.654586 3.387289 -25.215880 12.310714 -12.330477 -9.689293 11.207638 -9.162121 -2.770766 -22.455606 25.161408 13.269290 10.786621 51.177982 2.542877 11.899748 -7.289110 24.285016 6.946150 5.203826 5.779455 7.830980 10.558669 3.781524 -9.191269 
0.003994 0.000249 -0.013276 175.318628 21.398171 -20.398196 7.096128 8.194692 15.061131 -2.716118 4.779975 -7.515967 -4.871902 8.264284 3.428860 3.884286 8.884378 -2.343085 -3.155144 -6.843202 14.054327 3.911184 -6.855015 -4.057857 4.612964 -6.290768 1.061677 -2.854122 -1.976601 2.707693 0.896195 1.125029 -0.570819 0.752639 -3.361326 15.420133 1.034518 -1.554908 -0.455788 0.978056 7.804905 2.879172 1.593623 -5.216685 -16.545188 -27.786894 -10.286313 11.061918 -49.570253 -4.871519 7.162338 3.421442 -26.318788 11.244340 -12.046708 -9.442390 11.090342 -9.220500 -2.873419 -22.370330 25.376808 14.823531 11.112571 50.227782 3.453136 11.251121 -8.080785 25.441374 5.743241 5.120571 5.811387 8.319025 10.704098 3.832034 -9.418923 
0.010833 0.003792 -0.031786 175.394308 21.483220 -19.719295 6.570932 8.047501 12.479963 -2.583255 4.918183 -6.410925 -4.448733 7.974802 3.368870 3.698122 9.242678 -1.732611 -2.925502 -6.829470 11.237599 3.599499 -7.286584 -2.496684 4.571967 -6.369300 0.894054 -3.347539 -1.300097 2.651159 0.766228 1.428577 1.904700 0.890320 -3.552595 17.037113 1.220687 -1.321572 -0.933928 0.251814 8.283873 1.393408 2.317935 -5.813433 -18.711546 -27.698712 -13.176698 11.367658 -48.660817 -5.989651 6.850059 3.799443 -27.634035 8.992578 -11.747289 -9.086839 11.268437 -9.500291 -3.305536 -21.931918 25.487977 17.632811 11.693324 48.799770 4.694024 10.441303 -9.175335 26.733257 3.982805 5.255650 6.009081 9.320845 11.165148 4.111594 -9.666666 
0.022110 0.009321 -0.059920 175.333289 21.973247 -18.332410 5.678010 7.667796 7.562308 -2.104452 5.024350 -4.051097 -3.744551 7.763541 3.598504 3.371594 9.640783 -1.283660 -2.277373 -6.538850 6.181517 2.894357 -8.045074 0.387872 4.094370 -6.906644 0.940650 -3.724337 -0.508023 2.774675 0.783555 1.732918 6.139362 1.019136 -3.821307 18.471127 1.368667 -0.883154 -1.681791 -0.871781 8.300136 -0.712244 3.563828 -6.349409 -21.360769 -27.231663 -16.940981 11.155120 -47.556118 -7.855365 7.028972 4.819225 -28.564470 5.201366 -11.314540 -8.591734 11.319702 -10.124231 -4.185821 -20.677955 25.210706 21.141393 12.020671 47.378503 5.952144 9.587605 -10.833215 28.251301 1.186590 5.587769 6.473469 9.792301 12.046843 4.751666 -9.635238 
0.039903 0.018939 -0.098430 175.227368 22.119497 -14.632624 4.711923 6.944040 -1.088018 -1.571417 5.365722 -0.922108 -2.836376 7.814827 4.339994 3.161266 9.915509 -1.196400 -1.211658 -5.571056 -2.413955 2.290545 -8.526549 3.545524 3.339699 -7.665331 1.293173 -3.946280 0.250023 3.492008 0.767736 2.102938 11.940478 1.235483 -4.064332 18.557761 1.639631 -0.202286 -2.819928 -2.249198 7.664222 -3.167028 5.246829 -6.566076 -23.233819 -25.422419 -20.753784 9.852004 -47.158519 -9.987574 8.446207 6.627872 -29.656870 0.328136 -10.277687 -8.223220 10.933929 -11.133650 -5.469552 -18.266031 24.039689 24.830046 11.806162 46.150440 7.472350 9.243505 -12.669665 30.613366 -1.833281 5.779694 7.358487 9.413045 13.249913 5.745840 -9.313643 
0.061522 0.033268 -0.141778 175.011380 22.215177 -10.343215 4.325092 5.995167 -10.832178 -1.329602 5.544572 2.441547 -1.574374 7.699424 4.950851 2.530430 10.109676 -0.467369 -0.401005 -4.044368 -11.941822 1.891642 -9.191160 6.725129 1.476433 -7.918672 1.460110 -2.312701 0.159974 5.174976 0.715138 2.426991 18.711892 1.639599 -4.564820 19.414933 1.881620 0.523742 -4.817288 -3.496621 6.578134 -3.736746 6.990473 -6.703813 -23.918118 -23.557861 -25.043508 8.168367 -44.935200 -12.305746 10.507760 8.255460 -30.958199 -4.856129 -8.943007 -8.262401 11.162137 -12.213075 -6.689912 -15.379863 22.899114 28.967039 11.396984 43.121188 9.290149 8.981361 -14.461400 33.961723 -4.996175 6.264874 8.925501 9.258665 14.242537 6.690176 -8.600884 
0.084918 0.054664 -0.188245 173.529771 22.839752 -7.813440 4.924207 7.252903 -21.904573 -2.114563 2.314593 7.855102 -5.818863 14.663416 10.189794 11.602014 4.625063 -9.024598 1.620090 -3.126698 -22.437064 1.537513 -5.723043 12.408117 2.604104 -14.983222 4.637081 -12.721857 4.413041 0.015660 2.608310 0.669951 28.925785 -0.365969 -5.316429 17.807930 3.959900 2.187168 -3.739092 -7.868015 -0.498191 -7.602516 10.586499 -0.918906 -25.476389 -23.422243 -33.297213 13.664228 -37.661407 -12.902360 2.717093 11.723305 -36.765137 -2.050883 3.217087 -8.765992 14.851032 -13.423030 -9.996092 -12.820399 19.026524 37.109440 15.030291 36.556457 11.234387 -3.230631 -9.760850 40.246785 1.071794 -3.782973 9.792001 9.756698 14.130810 7.365877 -5.777740 
0.106610 0.081863 -0.227704 173.321791 24.181804 -4.762278 5.101985 5.677161 -33.044128 -2.785053 3.081293 15.736114 -5.068625 14.436823 9.503055 10.946024 5.095511 -8.747823 0.717438 -1.384865 -33.818126 1.123998 -6.717287 21.687928 2.668965 -16.472283 2.403712 -15.586730 5.305100 -0.641766 3.134936 -0.675570 37.842725 -0.536671 -5.417892 13.880654 5.018910 2.405241 -3.204618 -9.701045 -1.940657 -8.201932 12.709476 -0.001144 -27.155884 -20.279564 -36.674872 12.098953 -35.445850 -13.789659 0.072385 15.977564 -38.306638 -7.986843 7.762799 -8.754232 9.267662 -12.850293 -9.256011 -10.080332 15.348949 40.487684 13.578319 32.407008 13.474373 -6.427977 -10.997215 40.752345 -0.824198 -8.042632 10.254495 7.738926 13.336841 6.895540 -5.204977 
0.124300 0.117718 -0.262536 173.723826 24.493959 -0.729847 5.941462 4.814719 -46.077129 -3.706986 5.609046 26.211312 -3.785396 13.766538 7.023874 9.156436 5.621680 -7.429432 -0.964446 -1.533366 -46.799926 1.258360 -8.570732 32.166440 2.624241 -16.126805 0.212346 -16.671957 5.234274 -1.158729 3.299807 -1.327055 43.350650 -0.865041 -5.370798 10.834964 5.435730 2.700145 -3.722027 -10.789281 -2.885531 -7.305302 14.877352 0.998167 -27.346217 -19.292068 -38.908778 11.154976 -31.169816 -13.464465 -1.303971 17.190422 -38.844579 -8.487114 8.883232 -8.665080 8.578345 -11.618534 -9.044935 -9.402941 13.233042 42.533774 12.931309 27.801224 14.827509 -9.779889 -11.429321 40.063931 -1.488063 -10.009837 10.489811 7.696667 12.659981 6.824619 -5.571142 
